<svg id="Layer_1" data-name="Layer 1" xmlns="http://www.w3.org/2000/svg" xmlns:xlink="http://www.w3.org/1999/xlink" viewBox="0 0 190 197.31"><defs><style>.cls-1{fill:none;}.cls-2{fill:#1976d2;}.cls-3{fill:#fbd9a5;}.cls-4{fill:#e3bc81;}.cls-5{fill:#ffe0b2;}.cls-6{fill:#424242;}.cls-7{fill:#fff;}.cls-8{fill:#393636;}.cls-9{fill:#90a4ae;}.cls-10{fill:#607d8b;}.cls-11{fill:#e3dbdb;}.cls-12{fill:#303030;}.cls-13{clip-path:url(#clip-path);}.cls-14{fill-opacity:0;}.cls-15{fill:#6aa84f;}</style><clipPath id="clip-path" transform="translate(-5 -1.34)"><rect class="cls-1" x="46.54" y="124.68" width="106.16" height="41.46"/></clipPath></defs><path class="cls-2" d="M85.45,64.26c1.39-.94,2.14-.3,3,0l-2.24,7.41s-1.89-2.88-1.74-3.58S85.45,64.26,85.45,64.26Z" transform="translate(-5 -1.34)"/><path class="cls-2" d="M116.53,64.26c-1.79-.79-2.28-.3-3,0l2.24,7.41s1.89-2.88,1.74-3.58S116.53,64.26,116.53,64.26Z" transform="translate(-5 -1.34)"/><path class="cls-3" d="M87.29,57.6,86,80.23l18.11,25.61,19.74-27.15-7.36.25L114.2,57.3l-12.64,11Z" transform="translate(-5 -1.34)"/><path class="cls-4" d="M114.49,59l.15,4.38a32,32,0,0,1-5.92,9.15c-1.89,2-4.87,4.18-7.8,4.23s-5.28-2.49-8-4.13A36.18,36.18,0,0,1,87,62.77l.55-4.13s4.22,4.53,4.22,4.93S93.5,65.76,94.6,67s-.5,1.74,2.44,2.24,4.22.89,5.42.69.35.65,1.54-.64.35-.15,1.34-1.4.4-1,1.84-2a15.19,15.19,0,0,0,2.94-2.23c.84-.85.3,0,1.34-1.35s.35-.89,1-1.39,1.2-.89,1.2-.89Z" transform="translate(-5 -1.34)"/><path class="cls-5" d="M117.83,22.48l.59,12.29a2,2,0,0,1,3.24-.9c.29.8.15,2.79-.1,5.23a20.2,20.2,0,0,1-1,5.57c-.89,2.13-2.34,3-3.48,4-.2,4.87-1.29,6.91-1.79,10.29-1.44,3.88-4.58,7.16-8.41,11.09a11.84,11.84,0,0,1-5.42,2,13.18,13.18,0,0,1-6.51-2c-3.58-3-5.62-6.41-8-9.95-1.19-3.83-3-6.46-3.63-10.49-2.19-.8-3.14-2.59-4.28-4.77-1.24-3.09-.8-5.72-.65-8.91.75-1.09,1.4-1.44,2.24,0l-.84-4.13c-.9-4.52-1.15-8.75,3.43-10.64l12.08-5.17,18.06-.65c2,1.89,4.68,3.33,4.48,7.06Z" transform="translate(-5 -1.34)"/><path class="cls-6" d="M118.4,32.85l-2.53,7.76c-1.55-1.34-9.65-.1-14.18.8l-1.44.89-2.59.05-1.09-1a102.27,102.27,0,0,0-13-.25l-.7.55L81,35s-.75.45-.7.65,2.79,9.15,2.79,9.15c.1.4.6.5.79.9a4.5,4.5,0,0,0,2.59,3.48,28.94,28.94,0,0,0,9.65,0,14.79,14.79,0,0,0,2.24-4.83h2a27.84,27.84,0,0,0,2.09,4.33,20.69,20.69,0,0,0,11.79-.6,7.41,7.41,0,0,0,1.39-3.88l1.19-1.09L118.9,34Z" transform="translate(-5 -1.34)"/><path class="cls-7" d="M96.59,43.17l-.8-.49c-3.63-.85-7.56-.5-11.39-.35a6.31,6.31,0,0,0,2.34,5.77,21.54,21.54,0,0,0,8.65-.2c1.35-1.29,1.35-3,1.2-4.73Z" transform="translate(-5 -1.34)"/><path class="cls-7" d="M101.71,43.12l.6-.64c3.63-.85,11.19-1.69,12.33-.9,0,2.34.1,4.28-1.44,5.52-2,.4-6,1.25-9.75.5A5.81,5.81,0,0,1,101.71,43.12Z" transform="translate(-5 -1.34)"/><path class="cls-6" d="M101.81,40.79c3.18-2.29,8.85-4.58,9.6-4.43a22,22,0,0,1,2.29.15l1,.25a.44.44,0,0,1,0,.64h0a2,2,0,0,1-1,.4l-1.2-.15A13.4,13.4,0,0,0,106.78,40Z" transform="translate(-5 -1.34)"/><path class="cls-6" d="M95.89,40.64c-3.43-1.94-9.3-3.63-10-3.43a13.49,13.49,0,0,0-2.28.34l-1,.3a.39.39,0,0,0,0,.53l.11.07a3.73,3.73,0,0,0,1.05.3L85,38.5a13.81,13.81,0,0,1,5.87,1.79Z" transform="translate(-5 -1.34)"/><path class="cls-8" d="M119.57,33.18l.69-4.68c.9-3.68,1.5-7.26.35-9.75-.4-3.38-.1-6.91-4.47-9.6-5.18-5.42-12-7.51-19.85-7.81l1.29,1.79c-4.77-1.49-11.19,1.7-17.26,5.53l2.79-.85c-4.68,2.69-6,7-8.61,10.64l.85-.19a29.2,29.2,0,0,0,1.34,8.6l.45-1c.35,3,2,5.22,2.69,9.15l.69,1.14,1-2.34a46.87,46.87,0,0,0-.8-5.27c.8-2.29,1.69-3.93,2.84-4.48,6.61,1.7,13.58,1.25,20.74-.64,2.58-2.09,5.87-2.39,8.45-2.79a9.79,9.79,0,0,1,3,4.63c.64,2,.44,4.13,1.19,6.17l1.69,3.43Z" transform="translate(-5 -1.34)"/><path class="cls-3" d="M117.73,44.62c1-1.84,1.69-3.09,2.19-3s1.09-6,.79-5.62c0-1.09-.6-1.39-.75-.74a6.52,6.52,0,0,1-1.34,3.08c.4,2.39-.45,4.38-.89,6.47Z" transform="translate(-5 -1.34)"/><path class="cls-3" d="M79.93,37.33c-.75,0-.4,6.66.39,7a16.56,16.56,0,0,1,1.89,2C81.72,43.57,80.82,40.49,79.93,37.33Z" transform="translate(-5 -1.34)"/><path class="cls-9" d="M104.15,172.54,102.56,95l7.36-6.71.84-4.48,7.27-8.6,1.34-6.82,6.51,3.88,9.35,2.84,6.12,3.83,3.24.39,7.9,4c9.06,7,9,41.39,17,59.44a136.13,136.13,0,0,1-2.58,13.88c-4.48,6.66-11.44,11.64-17.36,17.36Z" transform="translate(-5 -1.34)"/><path class="cls-9" d="M106.59,172.12,102.49,95l-6.62-4.68-.05-2.78-9-9.26L83.39,68l-4.88,4.28a55.38,55.38,0,0,0-9.35,2.83l-6,3.93-3.48-.4L51.9,83.29c-11,12.68-8.95,41.38-17,59.44a136.49,136.49,0,0,0,2.59,13.87C42,163.27,49,168.24,54.89,174Z" transform="translate(-5 -1.34)"/><path class="cls-10" d="M116.53,64.26c-.54,7.91-3,14.53-7.81,19.45v4.68l-6.51,6.81,7.91-6.07c.89-1.59.69-1.74,1.14-5C112.7,82.42,114,82.57,116,83l4.77,9.11c.35-6.57,1-16.12-1.54-23.68Z" transform="translate(-5 -1.34)"/><path class="cls-10" d="M23.82,164,5,198.66H195L177.3,164Z" transform="translate(-5 -1.34)"/><path class="cls-10" d="M51.75,83.41a4.92,4.92,0,0,0-.59,1.94,33.37,33.37,0,0,1,9.25,15.87L62,113.55h1L61.2,100.42C60.21,94.5,56.48,88.88,51.75,83.41Z" transform="translate(-5 -1.34)"/><path class="cls-10" d="M152.49,83.41c.35.65,1,.8,1.1,1.44-4.48,4.38-9.1,10.45-10.7,16.72l-.59,12-1.64.3,1.44-13.28c.94-5.92,5.67-11.69,10.39-17.16Z" transform="translate(-5 -1.34)"/><path class="cls-10" d="M102.66,94.8l.94,19-1.54.15-.3-19Z" transform="translate(-5 -1.34)"/><path class="cls-11" d="M44.76,112.26h110a3.23,3.23,0,0,1,3.23,3.22h0v59.84a3.22,3.22,0,0,1-3.22,3.23h-110a3.23,3.23,0,0,1-3.23-3.22h0V115.54a3.21,3.21,0,0,1,3.13-3.28Z" transform="translate(-5 -1.34)"/><path class="cls-11" d="M41.48,180.8v2.09c0,1.34,1.64,2.44,3.68,2.44H154.28c2,0,3.68-1.1,3.68-2.44V180.8Z" transform="translate(-5 -1.34)"/><path class="cls-10" d="M85.5,64.26C86,72.17,92,80.68,96.89,85.6l-.25,4.33,5.82,5.42-7.81-4.68c-.9-1.59-.65-3-.75-4.12a5.46,5.46,0,0,0-5.32-1.84c-1.89,3.73-4.13,6.86-5.57,9.64-.35-6.56-2.74-18.4-.2-26Z" transform="translate(-5 -1.34)"/><path class="cls-12" d="M112.8,20.59c1-1,4.88,8.36,3.68,8.71.4-4.33-1.84-11.44-4.32-11.69C102,13.38,90.72,16.81,79.68,20c.84,1.29,2.28.44,3.68.79l-4.58,5.52L83.41,24c6.46,2,13.63,1.54,21.24-.35a21.25,21.25,0,0,1,8.15-3Z" transform="translate(-5 -1.34)"/><g class="cls-13"><path class="cls-14" d="M46.54,124.68H152.7v41.47H46.54Z" transform="translate(-5 -1.34)"/><path class="cls-14" d="M46.54,124.68H152.77v35.76H46.54Z" transform="translate(-5 -1.34)"/><path class="cls-15" d="M52.75,155a6.58,6.58,0,0,1-1.91-.81,1.19,1.19,0,0,1-.52-1,4.68,4.68,0,0,1,.25-1.29,19.37,19.37,0,0,1,.76-2q.49-1.14,1.2-2.49c.47-.9,1-1.88,1.59-3l-1.33,0h-1a1.65,1.65,0,0,1,1-.75,11,11,0,0,1,2.12-.54,40.68,40.68,0,0,1,2.38-3.55c.85-1.13,1.71-2.16,2.57-3.11A26.16,26.16,0,0,1,62.47,134,15.06,15.06,0,0,1,65,132.33c0-.13,0-.25,0-.34a.63.63,0,0,0,0-.2,3.55,3.55,0,0,1,1.07.2,10.8,10.8,0,0,1,2.47,1.07c.33.2.51.37.55.5a23.26,23.26,0,0,0-1.86,5,57.56,57.56,0,0,0-1.49,7.92c-.1.76-.18,1.63-.24,2.6s-.1,2.06-.1,3.26v1.29c0,.44,0,.89,0,1.37a.2.2,0,0,1-.11,0h-.23a4.26,4.26,0,0,1-.94-.13,9.37,9.37,0,0,1-1-.31,4.56,4.56,0,0,1-.86-.42,1.2,1.2,0,0,1-.44-.4c0-.25,0-.49,0-.73v-.78c0-1.19,0-2.39.13-3.61s.23-2.48.44-3.78l-1.06-.07-1.49-.07-1.75-.07-1.81-.07c-.46.85-.89,1.71-1.29,2.56a26.86,26.86,0,0,0-1.82,5.31A18.34,18.34,0,0,0,52.75,155Zm11-17.2c.08-.26.17-.63.27-1.1s.21-1,.3-1.49a6.23,6.23,0,0,0-1.59.94,15.3,15.3,0,0,0-1.8,1.71,26,26,0,0,0-1.89,2.28c-.64.87-1.25,1.77-1.84,2.72,1.6-.13,3.42-.22,5.47-.26.15-.8.31-1.6.49-2.39S63.57,138.61,63.78,137.8ZM74.35,139a3,3,0,0,1,1.4,1,5.33,5.33,0,0,1,1,1.73,12.73,12.73,0,0,1-1,1.86q-.66,1.08-1.32,2.22c-.44.76-.84,1.47-1.19,2.14a5.61,5.61,0,0,0-.62,1.67c.31-.33.64-.7,1-1.12l1.08-1.29c.36-.43.69-.82,1-1.17l.71-.79,1.29-1.34a20.82,20.82,0,0,1,1.56-1.42,11.3,11.3,0,0,1,1.65-1.15,3.12,3.12,0,0,1,1.52-.47,1.71,1.71,0,0,1,1.24.5,4.21,4.21,0,0,1,.79,1s-.07.09-.22.16a2.5,2.5,0,0,0-.61.56,10,10,0,0,0-.9,1.42c-.34.6-.67,1.24-1,1.94a16.48,16.48,0,0,0-.78,2.13,7.13,7.13,0,0,0-.32,2,1.48,1.48,0,0,0,.19.92.69.69,0,0,0,.53.2,1.63,1.63,0,0,0,.65-.15,1.54,1.54,0,0,1,.55-.14.45.45,0,0,1,.19.24,1,1,0,0,1,.07.33,3.69,3.69,0,0,1-.55.4,7.08,7.08,0,0,1-.66.38,5.58,5.58,0,0,1-.67.28,2,2,0,0,1-.59.12,3.3,3.3,0,0,1-1.35-.25,2.09,2.09,0,0,1-.83-.64,2.39,2.39,0,0,1-.42-1,6,6,0,0,1-.11-1.19,6.49,6.49,0,0,1,.05-.77,8.52,8.52,0,0,1,.23-1,13.76,13.76,0,0,1,.5-1.4l.8-2a6.35,6.35,0,0,0-.77.41,7.65,7.65,0,0,0-1.55,1.22c-.85.81-1.65,1.67-2.42,2.56S73,150.92,72.29,152c-.42.59-.79,1.08-1.1,1.49a3.16,3.16,0,0,1-.82.81,2,2,0,0,1-.88-1,5.59,5.59,0,0,1-.43-1.27,7,7,0,0,1,.16-1.37c.1-.56.25-1.17.42-1.85s.41-1.39.68-2.14.56-1.49.89-2.23a29.8,29.8,0,0,1,2-4,6.58,6.58,0,0,1,1.15-1.54Zm21.06,2a10,10,0,0,1-.63,3.05,6.47,6.47,0,0,1-1.49,2.23A10.93,10.93,0,0,1,91,148a24.63,24.63,0,0,1-3.21,1.49v.75a4.9,4.9,0,0,0,.06.77,3.19,3.19,0,0,0,.2.75,1.56,1.56,0,0,0,.4.55,1,1,0,0,0,.66.22,3.61,3.61,0,0,0,1.49-.34,8.47,8.47,0,0,0,1.42-.85,11.88,11.88,0,0,0,1.27-1.08l1-1.08a5.9,5.9,0,0,1,.5.5A14.1,14.1,0,0,1,92,152.52,8.1,8.1,0,0,1,89.06,154,4.69,4.69,0,0,1,86,152.52a4.24,4.24,0,0,1-1.1-2.94,9.7,9.7,0,0,1,.33-2.39,11.5,11.5,0,0,1,.92-2.34,13.56,13.56,0,0,1,1.37-2.13A11.2,11.2,0,0,1,89.19,141a8,8,0,0,1,1.86-1.18,4.59,4.59,0,0,1,1.9-.43A3.84,3.84,0,0,1,95.41,141Zm-2,.94a4.21,4.21,0,0,0-1.6.64,6.57,6.57,0,0,0-1.56,1.37,10.63,10.63,0,0,0-1.33,2,11.49,11.49,0,0,0-1,2.46,12.73,12.73,0,0,0,3.81-2.81,5.86,5.86,0,0,0,1.64-3.66ZM107,141a10,10,0,0,1-.63,3.05,6.62,6.62,0,0,1-1.49,2.23,10.93,10.93,0,0,1-2.33,1.73,25.91,25.91,0,0,1-3.21,1.49v.75a4.9,4.9,0,0,0,.06.77,3.19,3.19,0,0,0,.2.75,1.56,1.56,0,0,0,.4.55,1,1,0,0,0,.66.22,3.61,3.61,0,0,0,1.49-.34,8.47,8.47,0,0,0,1.42-.85,10.87,10.87,0,0,0,1.26-1.08c.4-.4.74-.75,1-1.08a5.9,5.9,0,0,1,.5.5,14.1,14.1,0,0,1-2.82,2.85,8.1,8.1,0,0,1-2.91,1.44,4.69,4.69,0,0,1-3.08-1.44,4.24,4.24,0,0,1-1.1-2.94,9.7,9.7,0,0,1,.33-2.39,11.5,11.5,0,0,1,.92-2.34,13.56,13.56,0,0,1,1.37-2.13,11.2,11.2,0,0,1,1.69-1.75,8.2,8.2,0,0,1,1.86-1.17,4.67,4.67,0,0,1,1.91-.43A3.83,3.83,0,0,1,107,141Zm-2,.94a4.21,4.21,0,0,0-1.6.64,6.38,6.38,0,0,0-1.56,1.37,10.63,10.63,0,0,0-1.33,2,11.49,11.49,0,0,0-1,2.46,12.73,12.73,0,0,0,3.81-2.81,5.93,5.93,0,0,0,1.66-3.66Zm3.92,5.56a30.84,30.84,0,0,1,2.11-6.2c.66-1.31,1.37-2,2.13-2a3.57,3.57,0,0,1,1.92.77c-.61,1.09-1.08,2-1.42,2.71a11.52,11.52,0,0,0-.72,2l-1,3.57c-.36,1.23-.71,2.41-1.07,3.53s-.68,2.14-1,3-.54,1.6-.7,2.08a25.73,25.73,0,0,1-1.24,2.86,9.76,9.76,0,0,1-1.27,1.91,4.31,4.31,0,0,1-1.39,1.09,3.8,3.8,0,0,1-1.59.35,6.55,6.55,0,0,1-1.25-.13,7,7,0,0,1-1.16-.35,4.3,4.3,0,0,1-1-.53,3.32,3.32,0,0,1-.69-.66.81.81,0,0,1,.19-.38.58.58,0,0,1,.29-.22,3.25,3.25,0,0,0,1,.75,3.12,3.12,0,0,0,1.28.22,2.54,2.54,0,0,0,1.61-.54,5.71,5.71,0,0,0,1.42-2.11,33.86,33.86,0,0,0,1.55-4.37q.87-2.83,2-7.41Zm4.67-10.43a2.11,2.11,0,0,1,.09-.49,1.31,1.31,0,0,1-.35-1,5.69,5.69,0,0,1,.07-.71c0-.3.12-.64.2-1s.19-.72.29-1.08a8.07,8.07,0,0,1,.33-.94,2.28,2.28,0,0,1,.85.19,6.5,6.5,0,0,1,1,.49,7.76,7.76,0,0,1,1,.67,4.19,4.19,0,0,1,.66.67c-.23.21-.52.5-.87.88s-.67.78-1,1.19-.63.79-.89,1.14a3.84,3.84,0,0,0-.5.76,1.18,1.18,0,0,1-.6-.3.67.67,0,0,1-.2-.48Zm1.49,13.86c0-.22,0-.43,0-.64s.08-.61.16-1,.18-1,.3-1.56.28-1.35.47-2.2c0-.2.13-.5.26-.92a10.23,10.23,0,0,1,.53-1.33,8.08,8.08,0,0,1,.8-1.36,3.05,3.05,0,0,1,1.14-1,5.5,5.5,0,0,1,1.28.59,4.39,4.39,0,0,1,1.38,1.3,10.69,10.69,0,0,0-1.1,1.5,15.06,15.06,0,0,0-.81,1.54,17.53,17.53,0,0,0-.65,1.67c-.2.57-.43,1.17-.68,1.8s-.4,1.08-.57,1.65a6.24,6.24,0,0,0-.29,1.49v.73c0,.16,0,.23-.16.21a1.53,1.53,0,0,1-.46-.14,2.84,2.84,0,0,1-.7-.44,3.31,3.31,0,0,1-.64-.76,2,2,0,0,1-.27-1.11Zm5.47-12.44a2,2,0,0,1,.09-.49,1.22,1.22,0,0,1-.24-.43,1.71,1.71,0,0,1-.1-.5,4.05,4.05,0,0,1,.07-.7c0-.3.11-.61.18-1a10.14,10.14,0,0,1,.29-1.07c.12-.37.23-.7.35-1a2.7,2.7,0,0,1,.84.19,6.13,6.13,0,0,1,1,.5,6.2,6.2,0,0,1,1,.66,3.49,3.49,0,0,1,.66.67c-.21.21-.49.5-.83.87s-.68.77-1,1.18-.63.8-.89,1.16a6.78,6.78,0,0,0-.5.77,1.18,1.18,0,0,1-.6-.3.69.69,0,0,1-.25-.54Zm11.14,2.78a2.53,2.53,0,0,1,.67.1,3.46,3.46,0,0,1,.7.26,3.55,3.55,0,0,1,.53.32c.14.12.22.22.22.32-.38.8-.74,1.61-1.06,2.42s-.6,1.59-.83,2.33a19.38,19.38,0,0,0-.53,2.09,9.6,9.6,0,0,0-.18,1.69,4,4,0,0,0,.17,1.33,1.25,1.25,0,0,0,.57.76,3.29,3.29,0,0,1-.89.37,3.77,3.77,0,0,1-1,.14c-1,0-1.54-.7-1.54-2.11a13.31,13.31,0,0,1,1.08-4.48,17.47,17.47,0,0,1-1.32,2.49,19.7,19.7,0,0,1-1.49,2,9.32,9.32,0,0,1-1.56,1.45,3.85,3.85,0,0,1-1.45.67,2.14,2.14,0,0,1-1.72-1,4.23,4.23,0,0,1-.64-2.45,9.52,9.52,0,0,1,.68-3.38,15.08,15.08,0,0,1,1.76-3.29,12.5,12.5,0,0,1,2.34-2.53,4.22,4.22,0,0,1,2.43-1.08,2.22,2.22,0,0,1,.64.35,5,5,0,0,1,.69.6,4.58,4.58,0,0,1,.55.7,1.38,1.38,0,0,1,.26.61,5.22,5.22,0,0,0-2.36,1.12,11.59,11.59,0,0,0-2.2,2.28,13,13,0,0,0-1.62,2.85,7.43,7.43,0,0,0-.63,2.83.65.65,0,0,0,.44.68,4,4,0,0,0,1.92-1.42,27.85,27.85,0,0,0,2.63-3.85l.64-1.15c.24-.42.49-.86.74-1.32l.73-1.38.65-1.36Zm8.22-2.32a3,3,0,0,1,1.4,1,5.28,5.28,0,0,1,1,1.74,13.84,13.84,0,0,1-1,1.86c-.44.72-.88,1.46-1.32,2.21s-.83,1.49-1.16,2.18a5.35,5.35,0,0,0-.62,1.67c.3-.33.64-.7,1-1.13l1.09-1.28q.53-.64,1-1.17c.31-.35.55-.62.72-.79l1.29-1.34a18.89,18.89,0,0,1,1.55-1.42,12.49,12.49,0,0,1,1.65-1.15,3.15,3.15,0,0,1,1.52-.47,1.71,1.71,0,0,1,1.25.5,4.47,4.47,0,0,1,.79,1s-.08.09-.22.16a2.37,2.37,0,0,0-.62.56,11,11,0,0,0-.9,1.42c-.33.6-.66,1.24-1,1.94a15.17,15.17,0,0,0-.79,2.13,7.12,7.12,0,0,0-.31,2,1.47,1.47,0,0,0,.18.92.71.71,0,0,0,.53.2,1.87,1.87,0,0,0,.66-.15,1.49,1.49,0,0,1,.55-.14.43.43,0,0,1,.18.24,1,1,0,0,1,.08.33,5.12,5.12,0,0,1-.55.4,7.08,7.08,0,0,1-.66.38,5.58,5.58,0,0,1-.67.28,2,2,0,0,1-.59.12,3.32,3.32,0,0,1-1.36-.25,2.16,2.16,0,0,1-.83-.64,2.35,2.35,0,0,1-.41-1,5.83,5.83,0,0,1-.12-1.18,4.9,4.9,0,0,1,.06-.77,6.9,6.9,0,0,1,.23-1A13.41,13.41,0,0,1,144,147c.22-.55.49-1.2.81-2a5.8,5.8,0,0,0-.78.41,7.88,7.88,0,0,0-1.54,1.22,34.39,34.39,0,0,0-2.42,2.56c-.72.84-1.45,1.77-2.19,2.8-.42.59-.78,1.08-1.1,1.49a3.28,3.28,0,0,1-.81.81,2.07,2.07,0,0,1-.89-1,6.13,6.13,0,0,1-.43-1.27,7.88,7.88,0,0,1,.16-1.37c.11-.56.25-1.17.43-1.85s.4-1.39.68-2.14.56-1.49.88-2.23a31.07,31.07,0,0,1,2-3.95,6.49,6.49,0,0,1,1.15-1.56Z" transform="translate(-5 -1.34)"/><path class="cls-15" d="M57.47,162.77l77.34-6.46-76,7.85Z" transform="translate(-5 -1.34)"/></g></svg>