<svg id="Layer_1" data-name="Layer 1" xmlns="http://www.w3.org/2000/svg" xmlns:xlink="http://www.w3.org/1999/xlink" height="100" width="100" viewBox="0 0 400 400"><defs><style>.cls-1{fill:none;}.cls-2{fill:#1976d2;}.cls-3{fill:#fbd9a5;}.cls-4{fill:#e3bc81;}.cls-5{fill:#ffe0b2;}.cls-6{fill:#424242;}.cls-7{fill:#fff;}.cls-8{fill:#393636;}.cls-9{fill:#90a4ae;}.cls-10{fill:#607d8b;}.cls-11{fill:#e3dbdb;}.cls-12{fill:#303030;}.cls-13{clip-path:url(#clip-path);}.cls-14{fill-opacity:0;}.cls-15{fill:#6aa84f;}</style><clipPath id="clip-path"><rect class="cls-1" x="92.52" y="249.62" width="213.43" height="83.36"/></clipPath></defs><title>logo</title><path class="cls-2" d="M170.74,128.15c2.8-1.9,4.3-.6,6,0l-4.5,14.9s-3.8-5.8-3.5-7.2,2-7.7,2-7.7Z"/><path class="cls-2" d="M233.24,128.15c-3.6-1.6-4.6-.6-6,0l4.5,14.9s3.8-5.8,3.5-7.2-2-7.7-2-7.7Z"/><path class="cls-3" d="M174.44,114.75l-2.5,45.5,36.4,51.5,39.7-54.6-14.8.5-4.7-43.5-25.4,22.1Z"/><path class="cls-4" d="M229.14,117.55l.3,8.8a64.64,64.64,0,0,1-11.9,18.4c-3.8,4.1-9.8,8.4-15.7,8.5-6.1-.1-10.6-5-16.1-8.3a73,73,0,0,1-11.9-19.8l1.1-8.3s8.5,9.1,8.5,9.9,3.5,4.4,5.7,6.9-1,3.5,4.9,4.5,8.5,1.8,10.9,1.4.7,1.3,3.1-1.3.7-.3,2.7-2.8.8-2.1,3.7-4a31.07,31.07,0,0,0,5.9-4.5c1.7-1.7.6.1,2.7-2.7s.7-1.8,2.1-2.8,2.4-1.8,2.4-1.8Z"/><path class="cls-5" d="M235.84,44.15l1.2,24.7c1.1-3.6,4.8-3.3,6.5-1.8.6,1.6.3,5.6-.2,10.5-.4,3.9-.7,8.3-2,11.2-1.8,4.3-4.7,6.1-7,8.1-.4,9.8-2.6,13.9-3.6,20.7-2.9,7.8-9.2,14.4-16.9,22.3a24,24,0,0,1-10.9,4,26.6,26.6,0,0,1-13.1-4c-7.2-6-11.3-12.9-16.1-20-2.4-7.7-6-13-7.3-21.1-4.4-1.6-6.3-5.2-8.6-9.6-2.5-6.2-1.6-11.5-1.3-17.9,1.5-2.2,2.8-2.9,4.5.1l-1.7-8.3c-1.8-9.1-2.3-17.6,6.9-21.4l24.3-10.4,36.3-1.3c4,3.8,9.4,6.7,9,14.2Z"/><path class="cls-6" d="M237,65l-5.1,15.6c-3.1-2.7-19.4-.2-28.5,1.6l-2.9,1.8-5.2.1-2.2-2.1a203.44,203.44,0,0,0-26.1-.5l-1.4,1.1-3.8-13.3s-1.5.9-1.4,1.3S166,89,166,89c.2.8,1.2,1,1.6,1.8.3,3.3,2.5,5.5,5.2,7a57.44,57.44,0,0,0,19.4,0c2.4-3,3.4-6.4,4.5-9.7h4a58,58,0,0,0,4.2,8.7,41.72,41.72,0,0,0,23.7-1.2c2.2-2.8,2.4-5.4,2.8-7.8l2.4-2.2,4.2-18.3Z"/><path class="cls-7" d="M193.14,85.75l-1.6-1c-7.3-1.7-15.2-1-22.9-.7a12.68,12.68,0,0,0,4.7,11.6,43,43,0,0,0,17.4-.4c2.7-2.6,2.7-6,2.4-9.5Z"/><path class="cls-7" d="M203.44,85.65l1.2-1.3c7.3-1.7,22.5-3.4,24.8-1.8,0,4.7.2,8.6-2.9,11.1-4.1.8-12.1,2.5-19.6,1-2.2-2.5-3.9-5.5-3.5-9Z"/><path class="cls-6" d="M203.64,80.95c6.4-4.6,17.8-9.2,19.3-8.9a41.88,41.88,0,0,1,4.6.3l2.1.5a.92.92,0,0,1-.1,1.3,4.17,4.17,0,0,1-2.1.8l-2.4-.3a26.88,26.88,0,0,0-11.4,4.8Z"/><path class="cls-6" d="M191.74,80.65c-6.9-3.9-18.7-7.3-20.2-6.9a28.28,28.28,0,0,0-4.6.7l-2,.6a.76.76,0,0,0,.3,1.2,7.64,7.64,0,0,0,2.1.6l2.4-.5a27.8,27.8,0,0,1,11.8,3.6Z"/><path class="cls-8" d="M239.34,65.65l1.4-9.4c1.8-7.4,3-14.6.7-19.6-.8-6.8-.2-13.9-9-19.3-10.4-10.9-24.2-15.1-39.9-15.7l2.6,3.6c-9.6-3-22.5,3.4-34.7,11.1l5.6-1.7c-9.4,5.4-12,14.1-17.3,21.4l1.7-.4a58.63,58.63,0,0,0,2.7,17.3l.9-2c.7,6.1,4,10.5,5.4,18.4l1.4,2.3,2-4.7a94.65,94.65,0,0,0-1.6-10.6c1.6-4.6,3.4-7.9,5.7-9,13.3,3.4,27.3,2.5,41.7-1.3,5.2-4.2,11.8-4.8,17-5.6,3.5,3.5,4.9,5.4,6.1,9.3,1.3,4.1.9,8.3,2.4,12.4l3.4,6.9Z"/><path class="cls-3" d="M235.64,88.65c2.1-3.7,3.4-6.2,4.4-6.1s2.2-12.1,1.6-11.3c0-2.2-1.2-2.8-1.5-1.5a13.16,13.16,0,0,1-2.7,6.2c.8,4.8-.9,8.8-1.8,13Z"/><path class="cls-3" d="M159.64,74c-1.5-.1-.8,13.4.8,14.1.7.3,3.8,4,3.8,4C163.24,86.55,161.44,80.35,159.64,74Z"/><path class="cls-9" d="M208.34,345.85l-3.2-156,14.8-13.5,1.7-9,14.6-17.3,2.7-13.7,13.1,7.8,18.8,5.7,12.3,7.7,6.5.8,15.9,8c18.2,14,18,83.2,34.1,119.5a273.29,273.29,0,0,1-5.2,27.9c-9,13.4-23,23.4-34.9,34.9Z"/><path class="cls-9" d="M213.24,345,205,190l-13.3-9.4-.1-5.6-18.1-18.6-6.9-20.8-9.8,8.6c-4.4.8-10.3,2.5-18.8,5.7l-12,7.9-7-.8-15.7,9.4c-22.1,25.5-18,83.2-34.1,119.5a273.28,273.28,0,0,0,5.2,27.9c9,13.4,23,23.4,34.9,34.9Z"/><path class="cls-10" d="M233.24,128.15c-1.1,15.9-6,29.2-15.7,39.1v9.4l-13.1,13.7,15.9-12.2c1.8-3.2,1.4-3.5,2.3-10.1,2.9-3.4,5.5-3.1,9.5-2.3l9.6,18.3c.7-13.2,2-32.4-3.1-47.6Z"/><path class="cls-10" d="M46.84,328.65,9,398.35H391l-35.58-69.7Z"/><path class="cls-10" d="M103,166.65a9.78,9.78,0,0,0-1.2,3.9,66.93,66.93,0,0,1,18.6,31.9l3.2,24.8h2l-3.6-26.4c-2-11.9-9.5-23.2-19-34.2Z"/><path class="cls-10" d="M305.54,166.65c.7,1.3,2.1,1.6,2.2,2.9-9,8.8-18.3,21-21.5,33.6l-1.2,24.1-3.3.6,2.9-26.7c1.9-11.9,11.4-23.5,20.9-34.5Z"/><path class="cls-10" d="M205.34,189.55l1.9,38.1-3.1.3-.6-38.1Z"/><path class="cls-11" d="M88.94,224.65h221.2a6.49,6.49,0,0,1,6.5,6.5v120.3a6.49,6.49,0,0,1-6.5,6.5H88.94a6.49,6.49,0,0,1-6.5-6.5V231.25A6.45,6.45,0,0,1,88.94,224.65Z"/><path class="cls-11" d="M82.34,362.45v4.2c0,2.7,3.3,4.9,7.4,4.9h219.4c4.1,0,7.4-2.2,7.4-4.9v-4.2Z"/><path class="cls-10" d="M170.84,128.15c1.1,15.9,13.1,33,22.9,42.9l-.5,8.7,11.7,10.9-15.7-9.4c-1.8-3.2-1.3-6.1-1.5-8.3a11,11,0,0,0-10.7-3.7c-3.8,7.5-8.3,13.8-11.2,19.4-.7-13.2-5.5-37-.4-52.2Z"/><path class="cls-12" d="M225.74,40.35c1.9-2.1,9.8,16.8,7.4,17.5.8-8.7-3.7-23-8.7-23.5-20.4-8.5-43.1-1.6-65.3,4.8,1.7,2.6,4.6.9,7.4,1.6l-9.2,11.1,9.3-4.7c13,4.1,27.4,3.1,42.7-.7,3.8-2.4,8.3-4.6,16.4-6.1Z"/><g class="cls-13"><path class="cls-14" d="M92.52,249.62H305.95V333H92.52Z"/><path class="cls-14" d="M92.52,249.62H306.09v71.89H92.52Z"/><path class="cls-15" d="M105,310.57a12.74,12.74,0,0,1-3.83-1.62,2.43,2.43,0,0,1-1.06-2,9.5,9.5,0,0,1,.51-2.59,37.47,37.47,0,0,1,1.52-3.94q1-2.28,2.42-5t3.2-5.93l-2.68-.08-1.92,0a3.2,3.2,0,0,1,2-1.5,22.84,22.84,0,0,1,4.26-1.1,81.32,81.32,0,0,1,4.8-7.13q2.56-3.4,5.15-6.25a52,52,0,0,1,5.18-5,30.42,30.42,0,0,1,5-3.43q.06-.4.08-.69t0-.4a8,8,0,0,1,2.16.4,22.28,22.28,0,0,1,4.95,2.16q1,.6,1.12,1a46,46,0,0,0-3.74,10,117.27,117.27,0,0,0-3,15.91q-.29,2.3-.49,5.24t-.2,6.55v2.59q0,1.32.11,2.76a.51.51,0,0,1-.23.06h-.46a8.06,8.06,0,0,1-1.88-.26,17.37,17.37,0,0,1-2.07-.63,9,9,0,0,1-1.73-.84,2.44,2.44,0,0,1-.89-.8q-.06-.75-.06-1.47V305q0-3.57.25-7.25t.89-7.6l-2.13-.14q-1.32-.08-3-.14l-3.51-.15-3.65-.14q-1.38,2.59-2.59,5.15a54.28,54.28,0,0,0-3.65,10.68A36.79,36.79,0,0,0,105,310.57ZM127.18,276q.23-.8.55-2.21t.6-3a11.88,11.88,0,0,0-3.2,1.9,30.39,30.39,0,0,0-3.62,3.42q-1.87,2-3.8,4.6T114,286.17q4.83-.4,11-.52.46-2.42,1-4.81T127.18,276Zm21.24,2.3a6,6,0,0,1,2.82,2,10.56,10.56,0,0,1,2,3.48,27.67,27.67,0,0,1-2,3.74q-1.32,2.18-2.65,4.46t-2.39,4.31a10.92,10.92,0,0,0-1.24,3.36q.92-1,2-2.27t2.18-2.59q1.07-1.29,2-2.35t1.44-1.59q1.09-1.15,2.59-2.68a40.29,40.29,0,0,1,3.13-2.87,23.49,23.49,0,0,1,3.31-2.3,6.3,6.3,0,0,1,3.06-.95,3.39,3.39,0,0,1,2.5,1,8.65,8.65,0,0,1,1.59,2.1q0,.11-.44.32a4.85,4.85,0,0,0-1.24,1.12,22.23,22.23,0,0,0-1.81,2.85q-1,1.81-2,3.91a31.91,31.91,0,0,0-1.58,4.29,14.4,14.4,0,0,0-.63,4,3,3,0,0,0,.37,1.84,1.4,1.4,0,0,0,1.07.4,3.42,3.42,0,0,0,1.32-.29,3.1,3.1,0,0,1,1.1-.29.86.86,0,0,1,.37.49,1.83,1.83,0,0,1,.15.66,8.76,8.76,0,0,1-1.1.81q-.63.4-1.33.75a10.82,10.82,0,0,1-1.35.57,3.61,3.61,0,0,1-1.18.23,6.56,6.56,0,0,1-2.73-.49,4.21,4.21,0,0,1-1.66-1.29,4.79,4.79,0,0,1-.84-1.92,11.81,11.81,0,0,1-.23-2.39,12,12,0,0,1,.11-1.55,14.63,14.63,0,0,1,.46-2q.34-1.18,1-2.82t1.62-3.95a11.35,11.35,0,0,0-1.56.81,15,15,0,0,0-3.11,2.47,69.52,69.52,0,0,0-4.86,5.13q-2.16,2.53-4.4,5.63-1.26,1.78-2.21,3a6.51,6.51,0,0,1-1.64,1.64,4.26,4.26,0,0,1-1.78-1.93,12.19,12.19,0,0,1-.86-2.56,15.34,15.34,0,0,1,.32-2.76q.32-1.67.86-3.72t1.36-4.29q.81-2.25,1.78-4.49a59.69,59.69,0,0,1,4-7.94A13.47,13.47,0,0,1,148.42,278.29Zm42.35,4.09a19.61,19.61,0,0,1-1.26,6.13,13.26,13.26,0,0,1-3,4.49,21.53,21.53,0,0,1-4.69,3.48,51.42,51.42,0,0,1-6.44,3q0,.34,0,.72t0,.78a11.27,11.27,0,0,0,.11,1.55,6.34,6.34,0,0,0,.41,1.5,2.93,2.93,0,0,0,.8,1.12,2,2,0,0,0,1.33.43,7.23,7.23,0,0,0,3-.69,16.15,16.15,0,0,0,2.85-1.7,22.65,22.65,0,0,0,2.54-2.18q1.18-1.18,2.1-2.16a11.26,11.26,0,0,1,1,1,27.87,27.87,0,0,1-5.67,5.73,16.11,16.11,0,0,1-5.84,2.9,9.46,9.46,0,0,1-6.19-2.9,8.48,8.48,0,0,1-2.21-5.9,18.38,18.38,0,0,1,.66-4.81,23.43,23.43,0,0,1,1.84-4.71,27.34,27.34,0,0,1,2.76-4.29,22.9,22.9,0,0,1,3.4-3.51A16.29,16.29,0,0,1,182,280a9.32,9.32,0,0,1,3.83-.86A7.71,7.71,0,0,1,190.77,282.37Zm-4,1.9a8.55,8.55,0,0,0-3.22,1.27,13.44,13.44,0,0,0-3.13,2.76,21.71,21.71,0,0,0-2.68,4,23,23,0,0,0-1.9,4.95,25.62,25.62,0,0,0,7.65-5.66A11.82,11.82,0,0,0,186.8,284.27Zm27.22-1.9a19.61,19.61,0,0,1-1.26,6.13,13.26,13.26,0,0,1-3,4.49,21.53,21.53,0,0,1-4.69,3.48,51.42,51.42,0,0,1-6.44,3q0,.34,0,.72t0,.78a11.27,11.27,0,0,0,.11,1.55,6.34,6.34,0,0,0,.41,1.5,2.93,2.93,0,0,0,.8,1.12,2,2,0,0,0,1.33.43,7.23,7.23,0,0,0,3-.69,16.15,16.15,0,0,0,2.85-1.7,22.65,22.65,0,0,0,2.54-2.18q1.18-1.18,2.1-2.16a11.27,11.27,0,0,1,1,1,27.87,27.87,0,0,1-5.67,5.73,16.11,16.11,0,0,1-5.84,2.9,9.46,9.46,0,0,1-6.19-2.9,8.48,8.48,0,0,1-2.21-5.9,18.38,18.38,0,0,1,.66-4.81,23.43,23.43,0,0,1,1.84-4.71,27.34,27.34,0,0,1,2.76-4.29,22.9,22.9,0,0,1,3.4-3.51,16.29,16.29,0,0,1,3.74-2.35,9.32,9.32,0,0,1,3.83-.86A7.71,7.71,0,0,1,214,282.37Zm-4,1.9a8.55,8.55,0,0,0-3.22,1.27,13.44,13.44,0,0,0-3.13,2.76,21.7,21.7,0,0,0-2.68,4,23,23,0,0,0-1.9,4.95,25.62,25.62,0,0,0,7.65-5.66A11.82,11.82,0,0,0,210.05,284.27Zm7.89,11.16A61.29,61.29,0,0,1,222.11,283q2-3.95,4.29-3.95a7.19,7.19,0,0,1,3.86,1.56q-1.84,3.28-2.85,5.44a22.94,22.94,0,0,0-1.46,3.94q-1,3.45-2.08,7.17t-2.16,7.11q-1.06,3.39-2,6.13t-1.41,4.17a50.74,50.74,0,0,1-2.5,5.75,19.31,19.31,0,0,1-2.56,3.86,8.7,8.7,0,0,1-2.79,2.18,7.37,7.37,0,0,1-3.2.7,12.12,12.12,0,0,1-2.5-.26,14,14,0,0,1-2.33-.7,8.61,8.61,0,0,1-2-1.06,6.49,6.49,0,0,1-1.38-1.33,1.52,1.52,0,0,1,.37-.77,1.19,1.19,0,0,1,.6-.44,6.24,6.24,0,0,0,2.05,1.5,6.36,6.36,0,0,0,2.56.46,5.16,5.16,0,0,0,3.25-1.1,11.46,11.46,0,0,0,2.85-4.23,67.84,67.84,0,0,0,3.11-8.8Q215.58,304.64,217.94,295.43Zm9.38-20.95a4.62,4.62,0,0,1,.18-1,2.64,2.64,0,0,1-.7-2,10.15,10.15,0,0,1,.14-1.43q.15-.92.41-2t.58-2.16a16.73,16.73,0,0,1,.66-1.9,5,5,0,0,1,1.7.38,13,13,0,0,1,2,1,13.6,13.6,0,0,1,1.9,1.33,7.88,7.88,0,0,1,1.33,1.35q-.7.63-1.74,1.78t-2,2.39q-1,1.24-1.78,2.3a7.19,7.19,0,0,0-1,1.52,2.32,2.32,0,0,1-1.21-.6A1.41,1.41,0,0,1,227.32,274.49Zm3,27.85a12.28,12.28,0,0,1,.08-1.29q.08-.78.32-2.07t.6-3.13q.37-1.85.95-4.43.12-.58.52-1.84a21.53,21.53,0,0,1,1.06-2.68,17.51,17.51,0,0,1,1.62-2.73,5.92,5.92,0,0,1,2.28-2,10.18,10.18,0,0,1,2.59,1.18,8.64,8.64,0,0,1,2.76,2.62,20.12,20.12,0,0,0-2.21,3,30.43,30.43,0,0,0-1.62,3.11q-.72,1.61-1.32,3.34t-1.35,3.62q-.63,1.62-1.15,3.32a12.12,12.12,0,0,0-.58,3q0,1,0,1.47t-.32.43a3.19,3.19,0,0,1-.93-.29,5.35,5.35,0,0,1-1.41-.89,6.44,6.44,0,0,1-1.29-1.52A4.07,4.07,0,0,1,230.31,302.34Zm11-25a4.71,4.71,0,0,1,.18-1,2.3,2.3,0,0,1-.49-.86,3.25,3.25,0,0,1-.2-1,9.61,9.61,0,0,1,.14-1.41q.15-.89.37-1.92t.58-2.16q.35-1.12.7-2a5.05,5.05,0,0,1,1.69.37,12.84,12.84,0,0,1,2,1,13.25,13.25,0,0,1,1.9,1.33,7.88,7.88,0,0,1,1.33,1.35q-.63.63-1.67,1.76t-2,2.36q-1,1.24-1.78,2.33a13,13,0,0,0-1,1.55,2.25,2.25,0,0,1-1.21-.6A1.37,1.37,0,0,1,241.3,277.37Zm22.39,5.58a5.39,5.39,0,0,1,1.35.2,7.25,7.25,0,0,1,1.41.52,5.93,5.93,0,0,1,1.06.66q.44.34.44.63-1.15,2.42-2.13,4.87t-1.67,4.69a39.46,39.46,0,0,0-1.06,4.2,18.44,18.44,0,0,0-.37,3.39,8.88,8.88,0,0,0,.34,2.68,2.56,2.56,0,0,0,1.15,1.52,6,6,0,0,1-1.79.75,7.72,7.72,0,0,1-2,.29q-3.11,0-3.11-4.26a27.06,27.06,0,0,1,2.18-9,35.22,35.22,0,0,1-2.65,5,35.62,35.62,0,0,1-3,4.11,18,18,0,0,1-3.14,2.91,7.41,7.41,0,0,1-2.9,1.35,4.33,4.33,0,0,1-3.46-2A8.54,8.54,0,0,1,243,300.5a18.88,18.88,0,0,1,1.38-6.79,30.51,30.51,0,0,1,3.54-6.62,25.35,25.35,0,0,1,4.69-5.09,8.55,8.55,0,0,1,4.89-2.16,4.54,4.54,0,0,1,1.29.7,9.44,9.44,0,0,1,1.38,1.21,9.28,9.28,0,0,1,1.12,1.41,3,3,0,0,1,.52,1.23,10.34,10.34,0,0,0-4.75,2.25,23.4,23.4,0,0,0-4.43,4.57,26.77,26.77,0,0,0-3.25,5.73,14.93,14.93,0,0,0-1.26,5.7A1.29,1.29,0,0,0,249,304q1.66-.34,3.85-2.85a54.77,54.77,0,0,0,5.3-7.75l1.29-2.3q.72-1.27,1.47-2.65t1.47-2.79Q263.06,284.27,263.69,282.94Zm16.52-4.66a6,6,0,0,1,2.82,2,10.56,10.56,0,0,1,2,3.48,27.67,27.67,0,0,1-2,3.74q-1.32,2.18-2.65,4.46T278,296.33a10.92,10.92,0,0,0-1.24,3.36q.92-1,2-2.27t2.18-2.59q1.07-1.29,2-2.35t1.44-1.59q1.09-1.15,2.59-2.68a40.3,40.3,0,0,1,3.13-2.87,23.49,23.49,0,0,1,3.31-2.3,6.3,6.3,0,0,1,3.06-.95,3.39,3.39,0,0,1,2.5,1,8.65,8.65,0,0,1,1.59,2.1q0,.11-.44.32a4.85,4.85,0,0,0-1.24,1.12,22.23,22.23,0,0,0-1.81,2.85q-1,1.81-2,3.91a31.91,31.91,0,0,0-1.58,4.29,14.4,14.4,0,0,0-.63,4,3,3,0,0,0,.37,1.84,1.4,1.4,0,0,0,1.07.4,3.42,3.42,0,0,0,1.32-.29,3.1,3.1,0,0,1,1.1-.29.86.86,0,0,1,.37.49,1.83,1.83,0,0,1,.15.66,8.76,8.76,0,0,1-1.1.81q-.63.4-1.33.75a10.82,10.82,0,0,1-1.35.57,3.61,3.61,0,0,1-1.18.23,6.56,6.56,0,0,1-2.73-.49,4.21,4.21,0,0,1-1.66-1.29,4.79,4.79,0,0,1-.84-1.92,11.81,11.81,0,0,1-.23-2.39,12,12,0,0,1,.11-1.55,14.63,14.63,0,0,1,.46-2q.34-1.18,1-2.82t1.62-3.95a11.35,11.35,0,0,0-1.56.81,15,15,0,0,0-3.11,2.47,69.53,69.53,0,0,0-4.86,5.13q-2.16,2.53-4.4,5.63-1.26,1.78-2.21,3a6.51,6.51,0,0,1-1.64,1.64,4.26,4.26,0,0,1-1.78-1.93,12.19,12.19,0,0,1-.86-2.56,15.34,15.34,0,0,1,.32-2.76q.32-1.67.86-3.72t1.36-4.29q.81-2.25,1.78-4.49a59.69,59.69,0,0,1,4-7.94A13.47,13.47,0,0,1,280.21,278.29Z"/><path class="cls-15" d="M114.49,326.21l155.49-13L117.14,329Z"/></g></svg>
